<svg class="w-24" width="50" height="50" viewBox="0 0 140 50" fill="none" xmlns="http://www.w3.org/2000/svg"><g clip-path="url(#clip0_7825_9390)"><path fill-rule="evenodd" clip-rule="evenodd" d="M14.5874 0V10.792L0 23.1022V12.2772L14.5874 0ZM0 26.9305V37.5576L14.5544 49.9997V39.2407L0 26.9305ZM37.5575 0V10.759C37.5575 10.759 20.8249 24.2573 20.8579 24.8844C20.8909 25.5114 37.5575 39.2077 37.5575 39.2077V49.9997C37.5575 49.9997 13.7454 31.144 12.2771 28.5147C10.8089 25.8854 10.7483 24.4113 12.2771 21.7821C13.8059 19.1528 37.5575 0 37.5575 0Z" fill="#0A9F82"></path><path d="M14.5874 10.792L14.6087 10.8172L14.6204 10.8074V10.792H14.5874ZM14.5874 0H14.6204V-0.0709126L14.5661 -0.0252504L14.5874 0ZM0 23.1022H-0.0330031V23.1732L0.0212848 23.1274L0 23.1022ZM0 12.2772L-0.0212515 12.2519L-0.0330031 12.2618V12.2772H0ZM0 37.5576H-0.0330031V37.5728L-0.0214453 37.5826L0 37.5576ZM0 26.9305L0.021313 26.9054L-0.0330031 26.8594V26.9305H0ZM14.5544 49.9997L14.5329 50.0248L14.5874 50.0714V49.9997H14.5544ZM14.5544 39.2407H14.5874V39.2254L14.5757 39.2155L14.5544 39.2407ZM37.5575 10.759L37.5782 10.7847L37.5905 10.7748V10.759H37.5575ZM37.5575 0H37.5905V-0.0690096L37.5368 -0.025691L37.5575 0ZM20.8579 24.8844L20.8909 24.8826L20.8579 24.8844ZM37.5575 39.2077H37.5905V39.1921L37.5785 39.1822L37.5575 39.2077ZM37.5575 49.9997L37.537 50.0256L37.5905 50.068V49.9997H37.5575ZM12.2771 28.5147L12.3059 28.4986L12.2771 28.5147ZM14.6204 10.792V0H14.5544V10.792H14.6204ZM0.0212848 23.1274L14.6087 10.8172L14.5661 10.7668L-0.0212848 23.077L0.0212848 23.1274ZM-0.0330031 12.2772V23.1022H0.0330031V12.2772H-0.0330031ZM14.5661 -0.0252504L-0.0212515 12.2519L0.0212515 12.3024L14.6086 0.0252504L14.5661 -0.0252504ZM0.0330031 37.5576V26.9305H-0.0330031V37.5576H0.0330031ZM14.5758 49.9747L0.0214453 37.5325L-0.0214453 37.5826L14.5329 50.0248L14.5758 49.9747ZM14.5214 39.2407V49.9997H14.5874V39.2407H14.5214ZM-0.021313 26.9557L14.5331 39.2659L14.5757 39.2155L0.021313 26.9054L-0.021313 26.9557ZM37.5905 10.759V0H37.5245V10.759H37.5905ZM20.8909 24.8826C20.8908 24.8811 20.8915 24.8742 20.8984 24.8597C20.9048 24.8461 20.9152 24.8287 20.93 24.8076C20.9595 24.7653 21.0045 24.7108 21.0645 24.6445C21.1844 24.5122 21.3617 24.3357 21.5887 24.1214C22.0425 23.6928 22.693 23.1144 23.4749 22.4377C25.0387 21.0843 27.1269 19.3384 29.2164 17.612C31.3058 15.8856 33.3963 14.1788 34.9644 12.9035C35.7485 12.2659 36.4019 11.7362 36.8594 11.3659C37.0881 11.1807 37.2678 11.0354 37.3904 10.9364C37.4516 10.8869 37.4986 10.849 37.5303 10.8234C37.5461 10.8107 37.5581 10.801 37.5661 10.7945C37.5701 10.7912 37.5732 10.7888 37.5752 10.7872C37.5762 10.7863 37.577 10.7857 37.5775 10.7853C37.5777 10.7851 37.5779 10.785 37.5781 10.7849C37.5782 10.7848 37.5782 10.7847 37.5575 10.759C37.5368 10.7333 37.5367 10.7334 37.5366 10.7335C37.5365 10.7336 37.5363 10.7337 37.536 10.7339C37.5355 10.7344 37.5348 10.735 37.5338 10.7358C37.5317 10.7374 37.5287 10.7399 37.5247 10.7431C37.5166 10.7496 37.5046 10.7593 37.4888 10.7721C37.4571 10.7976 37.4102 10.8356 37.3489 10.8851C37.2263 10.9841 37.0466 11.1294 36.8178 11.3146C36.3604 11.6849 35.7069 12.2147 34.9228 12.8523C33.3545 14.1276 31.2639 15.8345 29.1743 17.5611C27.0848 19.2876 24.9961 21.0339 23.4317 22.3878C22.6496 23.0647 21.9983 23.6438 21.5434 24.0734C21.316 24.2881 21.1372 24.466 21.0156 24.6002C20.9549 24.6673 20.9077 24.7242 20.8759 24.7698C20.86 24.7925 20.8473 24.8132 20.8387 24.8316C20.8305 24.849 20.824 24.868 20.825 24.8861L20.8909 24.8826ZM37.5575 39.2077C37.5785 39.1822 37.5784 39.1822 37.5783 39.1821C37.5782 39.182 37.578 39.1818 37.5777 39.1816C37.5772 39.1812 37.5765 39.1806 37.5754 39.1797C37.5734 39.1781 37.5704 39.1756 37.5664 39.1723C37.5584 39.1657 37.5464 39.1559 37.5307 39.1429C37.4991 39.117 37.4524 39.0785 37.3913 39.0283C37.2692 38.9278 37.0902 38.7804 36.8623 38.5925C36.4065 38.2168 35.7554 37.6793 34.9739 37.0324C33.4109 35.7386 31.3266 34.0071 29.2413 32.2559C27.156 30.5047 25.0698 28.7341 23.5029 27.3621C22.7194 26.6761 22.0661 26.09 21.6077 25.6559C21.3784 25.4388 21.1983 25.2601 21.0752 25.1262C21.0136 25.0592 20.9668 25.004 20.9354 24.9611C20.9196 24.9396 20.9082 24.9219 20.9007 24.9078C20.8928 24.8928 20.891 24.8851 20.8909 24.8826L20.825 24.8861C20.8259 24.9032 20.8333 24.9214 20.8424 24.9387C20.8519 24.9567 20.8654 24.9773 20.8821 25.0001C20.9157 25.0459 20.9644 25.1032 21.0266 25.1709C21.1513 25.3065 21.3327 25.4864 21.5623 25.7038C22.0217 26.1388 22.6758 26.7256 23.4594 27.4118C25.0268 28.7842 27.1135 30.5552 29.1989 32.3065C31.2844 34.0578 33.3688 35.7894 34.9318 37.0833C35.7133 37.7302 36.3645 38.2677 36.8203 38.6434C37.0482 38.8313 37.2273 38.9788 37.3494 39.0792C37.4104 39.1295 37.4572 39.168 37.4888 39.1939C37.5045 39.2069 37.5165 39.2167 37.5245 39.2233C37.5285 39.2266 37.5315 39.2291 37.5335 39.2307C37.5345 39.2315 37.5353 39.2322 37.5358 39.2326C37.5361 39.2328 37.5363 39.233 37.5364 39.2331C37.5365 39.2332 37.5366 39.2332 37.5575 39.2077ZM37.5905 49.9997V39.2077H37.5245V49.9997H37.5905ZM12.2483 28.5308C12.342 28.6986 12.5232 28.9286 12.7785 29.2114C13.0342 29.4947 13.3659 29.8326 13.762 30.2165C14.5542 30.9842 15.6053 31.9369 16.8249 33.0058C19.2641 35.1436 22.3786 37.7473 25.447 40.2687C28.5154 42.7901 31.5379 45.2293 33.7933 47.0382C34.921 47.9426 35.8569 48.6895 36.5109 49.2102C36.8379 49.4706 37.0944 49.6744 37.2692 49.8132C37.3566 49.8826 37.4236 49.9357 37.4687 49.9714C37.4912 49.9893 37.5083 50.0029 37.5198 50.0119C37.5255 50.0165 37.5298 50.0199 37.5327 50.0222C37.5341 50.0233 37.5352 50.0242 37.5359 50.0247C37.5363 50.025 37.5366 50.0252 37.5368 50.0254C37.5369 50.0255 37.537 50.0256 37.5575 49.9997C37.578 49.9739 37.5779 49.9738 37.5777 49.9736C37.5776 49.9735 37.5773 49.9733 37.5769 49.973C37.5762 49.9724 37.5751 49.9716 37.5737 49.9704C37.5708 49.9681 37.5665 49.9647 37.5608 49.9602C37.5493 49.9511 37.5322 49.9376 37.5097 49.9197C37.4646 49.884 37.3976 49.8309 37.3103 49.7615C37.1355 49.6228 36.879 49.4189 36.552 49.1586C35.8981 48.6379 34.9622 47.8911 33.8346 46.9867C31.5793 45.1779 28.557 42.7389 25.4889 40.2177C22.4207 37.6965 19.3068 35.0933 16.8684 32.9561C15.6491 31.8876 14.599 30.9357 13.8079 30.1691C13.4124 29.7857 13.0819 29.4489 12.8275 29.1672C12.5726 28.8849 12.3958 28.6595 12.3059 28.4986L12.2483 28.5308ZM12.2486 21.7655C11.483 23.0822 11.1126 24.1142 11.1202 25.1486C11.1279 26.1828 11.5133 27.2146 12.2483 28.5308L12.3059 28.4986C11.5727 27.1856 11.1937 26.1656 11.1862 25.1481C11.1787 24.1309 11.5425 23.1112 12.3057 21.7987L12.2486 21.7655ZM37.5575 0C37.5368 -0.025691 37.5367 -0.0256175 37.5365 -0.0254713C37.5364 -0.0253253 37.5361 -0.0251063 37.5357 -0.0248149C37.535 -0.024232 37.5339 -0.0233591 37.5325 -0.0221981C37.5296 -0.0198761 37.5253 -0.0164022 37.5196 -0.0117933C37.5082 -0.0025754 37.4911 0.0111824 37.4686 0.0293439C37.4236 0.0656671 37.3568 0.119606 37.2697 0.190071C37.0953 0.331001 36.8394 0.538037 36.5132 0.802469C35.8607 1.33133 34.9269 2.08978 33.8016 3.00814C31.5509 4.84484 28.5341 7.32119 25.4695 9.87973C22.4049 12.4382 19.2923 15.0791 16.8503 17.2447C15.6293 18.3275 14.5756 19.2917 13.7793 20.0676C13.3812 20.4555 13.0471 20.7966 12.7885 21.082C12.5304 21.3669 12.346 21.5979 12.2486 21.7655L12.3057 21.7987C12.3994 21.6375 12.5797 21.4108 12.8374 21.1263C13.0947 20.8423 13.4277 20.5023 13.8254 20.1149C14.6206 19.3401 15.6734 18.3766 16.8941 17.2941C19.3354 15.1291 22.4474 12.4888 25.5118 9.9304C28.5762 7.37207 31.5928 4.89589 33.8433 3.05928C34.9686 2.14098 35.9023 1.38257 36.5547 0.853746C36.881 0.589334 37.1368 0.382316 37.3112 0.241403C37.3983 0.170947 37.4651 0.117017 37.5101 0.0807021C37.5326 0.0625446 37.5496 0.0487908 37.561 0.0395769C37.5667 0.03497 37.571 0.031498 37.5739 0.029178C37.5754 0.028018 37.5764 0.027146 37.5772 0.0265641C37.5775 0.0262732 37.5778 0.0260549 37.578 0.0259092C37.5782 0.0257637 37.5782 0.025691 37.5575 0Z" fill="#0A9F82"></path><g clip-path="url(#clip1_7825_9390)"><path d="M48.6285 14.2942H44.2842V35.8758H48.7687L48.6285 26.4864L56.8968 35.8758H62.7827L52.6926 24.9449L62.7827 14.2942H57.3172L48.6285 23.6836V14.2942Z" fill="#212121"></path><path d="M95.5755 14.2942H90.5304V35.8758H95.0149V21.1611L104.544 35.8758H108.749V14.2942H104.544V28.3082L95.5755 14.2942Z" fill="#212121"></path><path d="M140 19.1991L136.076 21.8618V35.8758H140V19.1991Z" fill="#212121"></path><path d="M130.751 20.6005H126.546C126.546 20.6005 126.827 18.078 122.202 18.078C117.577 18.078 117.858 20.3203 117.858 20.3203C117.858 20.3203 116.877 22.8428 124.304 23.2632C131.732 23.6836 131.732 30.2702 131.732 30.2702C131.732 30.2702 131.031 36.7166 122.202 36.1561C113.373 35.5955 113.093 29.5695 113.093 29.5695H117.577C118.67 31.459 119.693 32.0396 122.202 32.2322C122.202 32.2322 126.928 32.386 127.387 30.2702C127.899 27.9115 126.126 26.9068 122.202 26.9068C118.278 26.9068 113.794 24.7051 113.794 20.6005C113.794 16.4959 117.718 13.8738 123.744 14.2942C129.77 14.7147 130.751 20.6005 130.751 20.6005Z" fill="#212121"></path><path d="M86.046 25.085C86.046 31.3542 80.9638 36.4363 74.6946 36.4363C68.4254 36.4363 63.3433 31.3542 63.3433 25.085C63.3433 18.8158 68.4254 13.7336 74.6946 13.7336C80.9638 13.7336 86.046 18.8158 86.046 25.085ZM67.2047 25.085C67.2047 29.2216 70.5581 32.5749 74.6946 32.5749C78.8312 32.5749 82.1845 29.2216 82.1845 25.085C82.1845 20.9484 78.8312 17.5951 74.6946 17.5951C70.5581 17.5951 67.2047 20.9484 67.2047 25.085Z" fill="#212121"></path><path d="M136.076 19.6195V14.2942H140V17.2371L136.076 19.6195Z" fill="#0A9F82"></path></g></g><defs><clipPath id="clip0_7825_9390"><rect width="140" height="49.9997" fill="white"></rect></clipPath><clipPath id="clip1_7825_9390"><rect width="95.7157" height="22.7027" fill="white" transform="translate(44.2842 13.7338)"></rect></clipPath></defs></svg>